# xmcd CD database file
# Copyright (C) 1997 Ti Kan
#
# Track frame offsets:
#  150
#  16305
#  30305
#  42327
#  57930
#  71707
#  86762
#  103925
#  117115
#  129592
#  144265
#  157687
#  173310
#  188702
#
# Disc length: 2773 seconds
#
# Revision: 1
# Processed by: cddbd v1.4b41PL1 Copyright (c) Steve Scherf et al.
# Submitted via: CDWizzard Release:4.22
#
DISCID=ab0ad30e
DTITLE=America - America Live
DYEAR=1900
DGENRE=
TTITLE0=Tin man
TTITLE1=Muskrat love
TTITLE2=I need you
TTITLE3=Old man took
TTITLE4=Daisy Jane
TTITLE5=Company
TTITLE6=Hollywood
TTITLE7=Sergeant darkness
TTITLE8=Amber cascades
TTITLE9=To eaxh his own
TTITLE10=Another day
TTITLE11=Ventura Highway
TTITLE12=Sister golden hair
TTITLE13=A horse with no name
EXTD=
EXTT0=
EXTT1=
EXTT2=
EXTT3=
EXTT4=
EXTT5=
EXTT6=
EXTT7=
EXTT8=
EXTT9=
EXTT10=
EXTT11=
EXTT12=
EXTT13=
PLAYORDER=
